<svg width="24" height="24" viewBox="0 0 24 24" fill="none" xmlns="http://www.w3.org/2000/svg">
<path d="M21.8067 10.0415H21.0012V10H12.0012V14H17.6527C16.8282 16.3285 14.6127 18 12.0012 18C8.68772 18 6.00122 15.3135 6.00122 12C6.00122 8.6865 8.68772 6 12.0012 6C13.5307 6 14.9222 6.577 15.9817 7.5195L18.8102 4.691C17.0242 3.0265 14.6352 2 12.0012 2C6.47872 2 2.00122 6.4775 2.00122 12C2.00122 17.5225 6.47872 22 12.0012 22C17.5237 22 22.0012 17.5225 22.0012 12C22.0012 11.3295 21.9322 10.675 21.8067 10.0415Z" fill="#FFC107"/>
<path d="M3.15356 7.3455L6.43906 9.755C7.32806 7.554 9.48106 6 12.0006 6C13.5301 6 14.9216 6.577 15.9811 7.5195L18.8096 4.691C17.0236 3.0265 14.6346 2 12.0006 2C8.15956 2 4.82856 4.1685 3.15356 7.3455Z" fill="#FF3D00"/>
<path d="M12.0004 22.0003C14.5834 22.0003 16.9304 21.0118 18.7049 19.4043L15.6099 16.7853C14.5722 17.5745 13.3041 18.0014 12.0004 18.0003C9.3994 18.0003 7.1909 16.3418 6.3589 14.0273L3.0979 16.5398C4.7529 19.7783 8.1139 22.0003 12.0004 22.0003Z" fill="#4CAF50"/>
<path d="M21.8053 10.0415H20.9998V10H11.9998V14H17.6513C17.2569 15.1082 16.5464 16.0766 15.6078 16.7855L15.6093 16.7845L18.7043 19.4035C18.4853 19.6025 21.9998 17 21.9998 12C21.9998 11.3295 21.9308 10.675 21.8053 10.0415Z" fill="#1976D2"/>
</svg>
